<svg xmlns="http://www.w3.org/2000/svg" xmlns:xlink="http://www.w3.org/1999/xlink" width="118.668" height="32.999" viewBox="0 0 118.668 32.999"><defs><clipPath id="a"><rect width="118.668" height="32.999" fill="#fc153b"></rect></clipPath></defs><g clip-path="url(#a)"><path d="M221.291,25.732H217.9a.332.332,0,0,1-.332-.332V1.707h-8.938V24.865a8.717,8.717,0,0,0,2.058,6.244c1.286,1.342,3.918,2.144,7.04,2.144h3.565a.215.215,0,0,0,.215-.215v-7.09a.215.215,0,0,0-.215-.215" transform="translate(-108.092 -0.883)" fill="#fc153b"></path><path d="M159.134,25.237l-.08-.318c-.848-3.366-4.9-17.674-5.819-20.62l-4.424,15c.173.535,3.023,9.3,4.451,13.8a.317.317,0,0,0,.3.222q5.254-.009,10.508-.026a.333.333,0,0,0,.312-.225c2.928-8.574,6.74-19.882,10.256-31.362H165.6c-1.109,3.954-2.278,8.015-3.574,12.411-.861,3.373-1.779,6.907-2.806,10.8Z" transform="translate(-77.1 -0.883)" fill="#fc153b"></path><path d="M12.695.011C8.373.146,4.788,1.521,2.6,3.886a8.367,8.367,0,0,0-2.225,6.19c.161,3.85,3.2,6.727,9.285,8.8q.554.193,1.1.376c2.778.946,5.651,1.923,5.726,3.965a2.512,2.512,0,0,1-.667,1.869,5.055,5.055,0,0,1-3.585,1.24c-.109,0-.218.006-.329.006-2.49,0-4.987-.908-7.861-2.858a.152.152,0,0,0-.085-.026.165.165,0,0,0-.031,0,.156.156,0,0,0-.1.066Q1.944,26.318.034,29.17a.158.158,0,0,0,.019.218A20.992,20.992,0,0,0,11.675,33c.18,0,.349,0,.517-.009,4.6-.14,8.182-1.461,10.369-3.82a8.769,8.769,0,0,0,2.274-6.6c-.132-3.134-1.3-6.667-8.915-9.117-.416-.138-.825-.268-1.223-.395l-.632-.2C11.462,12.044,9,11.271,8.938,9.5a2.119,2.119,0,0,1,.589-1.568,5.22,5.22,0,0,1,3.649-1.267c.094,0,.189-.005.285-.005A11.856,11.856,0,0,1,19.87,8.943a.146.146,0,0,0,.082.025.158.158,0,0,0,.129-.068L23.86,3.512a.169.169,0,0,0,.033-.13.126.126,0,0,0-.055-.088A18.624,18.624,0,0,0,13.338,0h0q-.316,0-.639.011" transform="translate(0)" fill="#fc153b"></path><path d="M92.372,1.706c-1.043,4.4-2.084,8.748-2.966,12.421l-.759,3.381-1.146,5.1-.075.334-.089-.331-.616-2.3q-.833-3.1-1.663-6.2C83.634,9.163,82.543,5.331,81.52,1.706H72.655C71.236,6.583,70.1,10.529,69.074,14.12c-.8,3.007-1.521,5.778-2.216,8.471l-.086.335-.078-.337c-.668-2.914-1.311-5.757-1.91-8.45C63.763,9.847,62.8,5.664,61.908,1.706H52.7c2.366,9.153,5.151,19.114,8.761,31.343a.334.334,0,0,0,.317.239q4.537.015,9.074.025a.318.318,0,0,0,.306-.233c1.123-4.06,2.352-8.417,3.759-13.322.366-1.39.741-2.783,1.1-4.13.253-.94.506-1.881.76-2.835l.081-.3.082.3c.369,1.368.746,2.737,1.112,4.061.265.961.53,1.925.8,2.9q1.337,4.627,2.683,9.259L82.717,33.1a.327.327,0,0,0,.311.235l5.361,0h3.892a.326.326,0,0,0,.312-.239c.294-1.064.75-2.7,1.3-4.7,2.269-8.175,6.054-21.817,7.375-26.692Z" transform="translate(-27.304 -0.883)" fill="#fc153b"></path><path d="M242.662,4.815l-.261-.594h-.347v.594h-.287V3.245h.661a.485.485,0,0,1,.544.487.453.453,0,0,1-.288.441l.288.642Zm-.234-1.32h-.376v.47h.38c.162,0,.254-.084.254-.233a.24.24,0,0,0-.259-.237" transform="translate(-125.261 -1.679)" fill="#fc153b"></path><path d="M241.181,4.756a1.612,1.612,0,1,1,1.611-1.612,1.613,1.613,0,0,1-1.611,1.612m0-2.931A1.318,1.318,0,1,0,242.5,3.144a1.319,1.319,0,0,0-1.317-1.318" transform="translate(-124.124 -0.793)" fill="#fc153b"></path></g></svg>